<?xml version="1.0" standalone="no"?><!DOCTYPE svg PUBLIC "-//W3C//DTD SVG 1.1//EN" "http://www.w3.org/Graphics/SVG/1.1/DTD/svg11.dtd"><svg t="1634455562106" class="icon" viewBox="0 0 1024 1024" version="1.1" xmlns="http://www.w3.org/2000/svg" p-id="3790" xmlns:xlink="http://www.w3.org/1999/xlink" width="200" height="200"><defs><style type="text/css"></style></defs><path d="M512 25.6c-268.2112 0-486.4 218.1888-486.4 486.4s218.1888 486.4 486.4 486.4 486.4-218.1888 486.4-486.4S780.2112 25.6 512 25.6zM512 923.5712c-226.944 0-411.5712-184.6272-411.5712-411.5712s184.6272-411.5712 411.5712-411.5712 411.5712 184.6272 411.5712 411.5712S738.944 923.5712 512 923.5712z" p-id="3791" fill="#ffffff"></path><path d="M709.7088 715.0848l-374.144 0c-20.6592 0-37.4272 16.7424-37.4272 37.4272s16.7424 37.4272 37.4272 37.4272l374.144 0c20.6592 0 37.4272-16.7424 37.4272-37.4272S730.368 715.0848 709.7088 715.0848z" p-id="3792" fill="#ffffff"></path><path d="M381.5424 619.5456c37.2992 0 65.792-14.4128 85.5296-43.1872 19.712-28.7744 29.5936-69.632 29.5936-122.5728 0-107.52-36.3264-161.28-109.0048-161.28-38.1184 0-67.2512 14.4384-87.3728 43.2896-20.1472 28.8512-30.208 70.656-30.208 125.3376C270.08 566.7584 307.2512 619.5456 381.5424 619.5456zM384.8192 343.1168c29.7984 0 44.7232 37.7088 44.7232 113.1008 0 75.1104-15.3088 112.6912-45.9264 112.6912-31.1552 0-46.7456-36.48-46.7456-109.44C336.8448 381.9264 352.8448 343.1168 384.8192 343.1168z" p-id="3793" fill="#ffffff"></path><path d="M691.4304 446.848c16.2048-7.3472 29.0816-17.3568 38.6816-30.0032 9.5744-12.6464 14.3872-26.3424 14.3872-41.0368 0-15.5136-4.352-29.696-13.0816-42.5472-8.704-12.8512-20.8896-22.8608-36.5312-30.0032-15.6672-7.1424-33.152-10.7264-52.4544-10.7264-19.2 0-36.5568 3.6352-52.0448 10.9312-15.5136 7.296-27.5968 17.3824-36.2496 30.2336-8.6272 12.8256-12.9536 27.1616-12.9536 42.9568 0 15.104 4.3776 28.8512 13.1584 41.2416 8.7808 12.3648 21.1968 22.5792 37.248 30.6176-20.1216 6.656-35.5328 17.152-46.1312 31.4368-10.624 14.3104-15.9232 30.6432-15.9232 49.024 0 26.3936 10.3936 48.0256 31.232 64.9216 20.8128 16.8704 47.8208 25.2928 81.0496 25.2928 33.2032 0 60.2368-8.448 81.0496-25.2928 20.8128-16.896 31.232-38.7328 31.232-65.536 0-19.0464-5.504-35.6864-16.5376-49.8944C726.5536 464.1792 711.168 453.632 691.4304 446.848zM615.808 352.9216c7.0144-8.2688 16.1024-12.4416 27.264-12.4416 10.88 0 19.8912 4.1728 27.0592 12.4416 7.1424 8.32 10.7008 18.4576 10.7008 30.4128 0 11.9808-3.6608 21.9904-11.0336 30.0288-7.3472 8.0128-16.256 12.032-26.752 12.032-10.88 0-19.8912-4.1216-27.0336-12.3648-7.1424-8.2432-10.7264-18.1248-10.7264-29.696C605.2864 371.3792 608.7936 361.2416 615.808 352.9216zM675.5072 558.3104c-8.704 8.832-19.8656 13.2608-33.4848 13.2608-14.1568 0-25.4464-4.4288-33.8944-13.2608-8.448-8.8576-12.672-20.6336-12.672-35.328 0-13.7216 4.3264-25.216 12.9792-34.4064 8.6272-9.1648 19.84-13.7728 33.5872-13.7728 13.3376 0 24.4224 4.608 33.28 13.7728 8.832 9.1904 13.2608 20.6592 13.2608 34.4064C688.5888 537.6768 684.2368 549.4528 675.5072 558.3104z" p-id="3794" fill="#ffffff"></path></svg>